<?xml version="1.0" encoding="utf-8"?>
<!-- Generator: Adobe Illustrator 21.1.0, SVG Export Plug-In . SVG Version: 6.00 Build 0)  -->
<svg version="1.1" id="Layer_1" xmlns="http://www.w3.org/2000/svg" xmlns:xlink="http://www.w3.org/1999/xlink" x="0px" y="0px"
	 viewBox="0 0 720 179.7" style="enable-background:new 0 0 720 179.7;" xml:space="preserve">
<style type="text/css">
	.st0{fill:#EE3124;}
</style>
<g>
	<g>
		<path class="st0" d="M313.9,25c5-8.8,11.8-16.5,20-22.6C329.7,0.7,325,0,322.7,0c-18.1,0-36.4,11.8-43.2,28.8h-0.6V3.7h-35.4
			v135.5h37.2V78.1c0-21.2,7.5-39,28.2-42.8C310.4,31.8,312,28.3,313.9,25z"/>
	</g>
	<path class="st0" d="M166.5,1c42.8,0,66.9,31.4,66.9,70.7c0,39.3-24.2,70.7-66.9,70.7c-42.8,0-66.9-31.4-66.9-70.7
		C99.6,32.3,123.7,1,166.5,1z M166.5,111.9c22.8,0,31.6-20.1,31.6-40.3c0-20.1-8.7-40.3-31.6-40.3c-22.8,0-31.5,20.1-31.5,40.3
		C134.9,91.8,143.7,111.9,166.5,111.9z"/>
	<path class="st0" d="M577.4,83.4c0,39.4-18.1,58.9-59.1,58.9c-41.1,0-59.1-19.6-59.1-58.9V3.8h35.3v81.7c0,17.5,6.5,26.4,23.8,26.4
		c17.3,0,23.7-8.9,23.7-26.4V3.8h35.4V83.4z"/>
	<g>
		<g>
			<path class="st0" d="M114.8,3.8H0v30.4h40.5v105.3h35.4V34.2h17.1C97.8,22.2,105.1,11.8,114.8,3.8z"/>
		</g>
	</g>
	<g>
		<path class="st0" d="M449.9,71.6C449.9,32.3,425.8,1,383,1c-42.8,0-66.9,31.4-66.9,70.7c0,39.3,24.1,70.7,66.9,70.7
			c1.1,0,2.3,0,3.4-0.1l37.5,37.5l18-33.8l-17-17C441.2,116.1,449.9,95.3,449.9,71.6z M351.5,71.6c0-20.1,8.7-40.3,31.5-40.3
			c22.8,0,31.6,20.1,31.6,40.3c0,20.1-8.7,40.3-31.6,40.3C360.2,111.9,351.5,91.8,351.5,71.6z"/>
	</g>
	<path class="st0" d="M623,80.7c1,23.4,12.4,34,33,34c14.8,0,26.8-9.1,29.1-17.4h32.4c-10.4,31.7-32.4,45.2-62.8,45.2
		c-42.3,0-68.5-29.1-68.5-70.6c0-40.2,27.8-70.9,68.5-70.9c45.7,0,67.7,38.4,65.2,79.7H623z M682.9,57.3
		c-3.4-18.7-11.4-28.6-29.4-28.6c-23.4,0-30.1,18.2-30.6,28.6H682.9z"/>
</g>
</svg>
