<svg xmlns="http://www.w3.org/2000/svg" width="112" height="112" viewBox="0 0 112 112">
  <g fill="none" fill-rule="evenodd">
    <g fill="#FFFFFE" fill-rule="nonzero" transform="translate(1 2)">
      <path d="M54.838,108.718 C24.5527897,108.718 0,84.3810091 0,54.359 C0,24.3363352 24.5524423,0 54.838,0 C85.1235577,0 109.676,24.3363352 109.676,54.359 C109.676,84.3810091 85.1232103,108.718 54.838,108.718 Z M54.838,107.968 C84.7104717,107.968 108.926,83.9653061 108.926,54.359 C108.926,24.7520403 84.7108212,0.75 54.838,0.75 C24.9651788,0.75 0.75,24.7520403 0.75,54.359 C0.75,83.9653061 24.9655283,107.968 54.838,107.968 Z"/>
      <path d="M54.838,97.528 C31.2934675,97.528 12.209,78.1976919 12.209,54.354 C12.209,30.5111522 31.2936216,11.181 54.838,11.181 C78.3823784,11.181 97.467,30.5111522 97.467,54.354 C97.467,78.1976919 78.3825325,97.528 54.838,97.528 Z M54.838,96.778 C77.9661549,96.778 96.717,77.7856119 96.717,54.354 C96.717,30.9232348 77.9660036,11.931 54.838,11.931 C31.7099964,11.931 12.959,30.9232348 12.959,54.354 C12.959,77.7856119 31.7098451,96.778 54.838,96.778 Z"/>
      <path d="M54.8381,96.618 C42.893228,96.618 33.3361,77.6702891 33.3361,54.357 C33.3361,31.0445565 42.8933078,12.097 54.8381,12.097 C66.7828922,12.097 76.3401,31.0445565 76.3401,54.357 C76.3401,77.6702891 66.782972,96.618 54.8381,96.618 Z M54.8381,95.868 C66.2293112,95.868 75.5901,77.309546 75.5901,54.357 C75.5901,31.4052991 66.2292349,12.847 54.8381,12.847 C43.4469651,12.847 34.0861,31.4052991 34.0861,54.357 C34.0861,77.309546 43.4468888,95.868 54.8381,95.868 Z"/>
      <path d="M54.838,76.128 C31.7368553,76.128 12.961,66.4474174 12.961,54.355 C12.961,42.2615569 31.7369267,32.58 54.838,32.58 C77.9390733,32.58 96.715,42.2615569 96.715,54.355 C96.715,66.4474174 77.9391447,76.128 54.838,76.128 Z M54.838,75.378 C77.5790838,75.378 95.965,65.8984648 95.965,54.355 C95.965,42.8104887 77.579015,33.33 54.838,33.33 C32.096985,33.33 13.711,42.8104887 13.711,54.355 C13.711,65.8984648 32.0969162,75.378 54.838,75.378 Z"/>
    </g>
    <path fill="#FFFFFE" d="M42,58.033195 L43.6012085,58.033195 C43.5861027,59.0373444 44.2356495,59.7524205 45.5196375,59.7524205 C46.9848943,59.7524205 47.6042296,58.8091286 47.6042296,57.8810512 C47.6042296,56.7704011 46.8640483,56.1922545 46.0936556,56.0248963 C45.5498489,55.9183956 45.1722054,55.93361 44.6435045,55.9488243 L44.6435045,54.7164592 C45.6858006,54.8077455 47.4380665,54.5947441 47.4380665,52.8907331 C47.4380665,51.7040111 46.6374622,51.2323651 45.5951662,51.2323651 C44.8096677,51.2323651 43.8277946,51.582296 43.6918429,52.8907331 L42.1661631,52.8907331 C42.2567976,50.2738589 44.7039275,50.0152144 45.5498489,50.0152144 C47.8308157,50.0152144 48.9637462,51.3997234 48.9637462,52.8603043 C48.9637462,53.7275242 48.4954683,54.9751037 46.8791541,55.340249 C49.1148036,55.659751 49.1148036,57.6832642 49.1148036,57.8962656 C49.1148036,59.3720609 47.9214502,61 45.489426,61 C44.3867069,61 43.2839879,60.6804979 42.6193353,59.9045643 C42.0302115,59.2351314 42.0151057,58.4744122 42,58.033195 Z M57.5287009,52.7081604 L55.9728097,52.7081604 C55.9577039,51.4757953 55.0513595,51.1410788 54.3867069,51.1410788 C52.8761329,51.1410788 52.2114804,52.4495159 52.0755287,55.2489627 C52.407855,54.7621024 52.9818731,53.9100968 54.5075529,53.9100968 C56.2145015,53.9100968 57.6646526,55.0511757 57.6646526,57.2876902 C57.6646526,59.7372061 55.9274924,60.9695712 54.1299094,60.9695712 C53.1178248,60.9695712 52.1057402,60.5587828 51.5468278,59.8284924 C50.776435,58.7939142 50.5951662,57.2876902 50.5951662,55.9488243 C50.5951662,53.6514523 51.1540785,50 54.4622356,50 C55.836858,50 56.6072508,50.6085754 56.9697885,51.0041494 C57.4984894,51.6279391 57.5135952,52.2973721 57.5287009,52.7081604 Z M54.1903323,59.813278 C55.1268882,59.813278 56.2145015,59.1438451 56.2145015,57.4246196 C56.2145015,56.6791148 56.0030211,55.0816044 54.265861,55.0816044 C52.8610272,55.0816044 52.1812689,56.2378976 52.1812689,57.439834 C52.1812689,58.8091286 53.0271903,59.813278 54.1903323,59.813278 Z M58.8882175,55.5988935 C58.8882175,54.0318119 59.0694864,50 62.3927492,50 C65.5196375,50 65.897281,53.3775934 65.897281,55.3554633 C65.897281,57.8506224 65.3987915,59.2503458 64.4471299,60.1479945 C63.7069486,60.8478562 62.8308157,60.9543568 62.3625378,60.9543568 C60.9728097,60.9543568 60.021148,60.1327801 59.5679758,59.2047026 C59.2205438,58.5048409 58.8882175,57.4854772 58.8882175,55.5988935 Z M60.3383686,55.5228216 C60.3383686,57.8658368 60.7915408,59.6915629 62.3776435,59.6915629 C64.1299094,59.6915629 64.4320242,57.3789765 64.4320242,55.4923928 C64.4320242,52.966805 63.9939577,51.2171508 62.407855,51.2171508 C60.5800604,51.2171508 60.3383686,53.6362379 60.3383686,55.5228216 Z M69.6435045,50 C70.9425982,50 72,51.0497925 72,52.373444 C72,53.6666667 70.9577039,54.746888 69.6435045,54.746888 C68.3444109,54.746888 67.2870091,53.6818811 67.2870091,52.373444 C67.2870091,51.0497925 68.3444109,50 69.6435045,50 Z M69.6435045,51.0497925 C68.9335347,51.0497925 68.3293051,51.6279391 68.3293051,52.373444 C68.3293051,53.1037344 68.918429,53.6970954 69.6435045,53.6970954 C70.3836858,53.6970954 70.9577039,53.0885201 70.9577039,52.373444 C70.9577039,51.6431535 70.3685801,51.0497925 69.6435045,51.0497925 Z"/>
  </g>
</svg>