<?xml version="1.0" encoding="utf-8"?>

<svg xmlns="http://www.w3.org/2000/svg" width="57" height="55" viewBox="0 0 57 55">
    <path fill="#FEFEFE" fill-rule="evenodd" d="M47.168 36.142c-1.46 0-2.84.342-4.066.948l-12.28-7.967V21.46h8.183a2.313 2.313 0 0 0 2.318-2.303V2.617c0-1.271-1.04-2.305-2.318-2.305h-21a2.311 2.311 0 0 0-2.315 2.305v16.541a2.311 2.311 0 0 0 2.314 2.305h8.186v7.66L13.908 37.09a9.14 9.14 0 0 0-4.065-.948c-5.06 0-9.175 4.096-9.175 9.132 0 5.034 4.115 9.132 9.175 9.132 5.059 0 9.175-4.098 9.175-9.132 0-1.85-.557-3.574-1.512-5.014l10.827-7.025c.057.003.113.007.173.007.058 0 .115-.004.17-.007l10.829 7.025a9.048 9.048 0 0 0-1.514 5.014c0 5.034 4.118 9.132 9.177 9.132 5.058 0 9.177-4.098 9.177-9.132 0-5.036-4.119-9.132-9.177-9.132"/>
</svg>
