<?xml version="1.0" encoding="utf-8"?>

<svg xmlns="http://www.w3.org/2000/svg" width="60" height="58" viewBox="0 0 60 58">
    <path fill="none" fill-rule="evenodd" stroke="#FFF" stroke-width="1.996" d="M49.076 37.792c-1.51 0-2.936.342-4.204.947l-12.696-7.961v-7.656h8.46c1.32 0 2.397-1.031 2.397-2.301V4.29c0-1.27-1.076-2.303-2.397-2.303H18.924c-1.32 0-2.393 1.033-2.393 2.303v16.53c0 1.27 1.072 2.303 2.393 2.303h8.463v7.654l-12.699 7.961a9.72 9.72 0 0 0-4.202-.947C5.254 37.792 1 41.885 1 46.917c0 5.03 4.254 9.125 9.486 9.125 5.23 0 9.486-4.095 9.486-9.125a8.826 8.826 0 0 0-1.563-5.01l11.193-7.02c.06.003.117.007.18.007.06 0 .118-.004.176-.007l11.195 7.02a8.827 8.827 0 0 0-1.565 5.01c0 5.03 4.258 9.125 9.488 9.125 5.23 0 9.488-4.095 9.488-9.125 0-5.032-4.258-9.125-9.488-9.125"/>
</svg>
