<?xml version="1.0" encoding="utf-8"?>

<svg xmlns="http://www.w3.org/2000/svg" width="93" height="95" viewBox="0 0 93 95">
    <g fill="#FEFEFE" fill-rule="evenodd">
        <path d="M90.7 33.532v37.454H3.04V2.944H90.7v30.588zM.883.783v72.365h91.976V.783H.883z"/>
        <path d="M46.865 11.046c-18.022 0-34.007 8.872-43.823 22.474v3.148c9.462-14.135 25.573-23.462 43.823-23.462 18.257 0 34.374 9.332 43.836 23.473v-3.147c-9.826-13.61-25.81-22.486-43.836-22.486M52.285 58.647c-.237.18-.403.258-.492.285a.932.932 0 0 1-.049-.35c0-.317.07-.826.33-1.557.635-1.81 2.223-4.387 5.037-7.026-2.117 5.08-4.099 8.085-4.826 8.648M46.1 45.387c1.733-2.246 3.234-2.78 3.707-2.893.253-.058.426-.06.537-.045-.038.047-.077.1-.153.166-1.588 1.473-2.983 2.411-4.091 2.773m-1.364 2.53c.004-.13.062-.43.33-.99.79.029 1.673-.212 2.656-.74-1.338 1.183-2.556 1.73-2.986 1.73m-1.428 8.497c-.079.064-.145.113-.203.153.073-1 1.294-3.685 4.08-6.554-.94 2.417-2.272 5.13-3.877 6.401m-22.46-15.17c.257.014.298.114.32.162.02.06.037.144.037.24 0 .6-.528 1.844-2.136 3.488-2.153 2.208-4.19 3.578-6.007 4.408 3.194-6.148 6.457-8.36 7.787-8.298m13.625 3.627c.226-.12.386-.147.48-.147-.036.164-.211.563-.887 1.153-.503.435-.967.826-1.392 1.171.702-1.475 1.503-2.023 1.799-2.177m39.422-4.158a.697.697 0 0 0-.883-.665c-5.33 1.479-9.553 3.542-12.851 5.78.394-1.166.783-2.4 1.164-3.698a.692.692 0 0 0-.38-.825.694.694 0 0 0-.867.26c-3.438 5.4-5.387 6.382-5.817 6.372a.445.445 0 0 1-.041-.21c0-.617.527-2.154 2.228-3.956a.705.705 0 0 0 .192-.475.686.686 0 0 0-.128-.394.692.692 0 0 0-.836-.243 29.916 29.916 0 0 0-5.67 3.157l.034-.137c.011-.059.026-.111.026-.168a.693.693 0 0 0-.375-.61c-.015-.006-.024-.006-.037-.012.474-.373.964-.785 1.48-1.26.54-.505.68-.962.68-1.303 0-.15-.026-.273-.058-.37-.159-.49-.61-.811-1.232-.885-1.528-.177-3.945 1.117-6.113 4.306-.74-.395-1.028-1.362-1.162-1.802l-.055-.176a.672.672 0 0 0-.659-.47c-.467.005-.97.33-1.758 1.254.01-.02.021-.047.036-.064a.724.724 0 0 0 .062-.3.698.698 0 0 0-.331-.593.693.693 0 0 0-.912.18c-3.852 5.187-7.224 6.628-7.753 6.366-.002-.015-.015-.053-.015-.141 0-.059.011-.143.028-.245.86-.616 1.876-1.42 3.082-2.468 1.115-.968 1.371-1.752 1.371-2.27 0-.235-.055-.414-.102-.53-.23-.534-.78-.83-1.444-.771-1.43.122-3.216 1.797-4.116 5.2-2.233 1.525-2.837 1.293-2.918 1.246-.304-.174-.279-1.13.068-2.84.15-.76.222-1.105.05-1.42a.932.932 0 0 0-.793-.51c-.727-.036-1.548.725-3.257 3.14.677-1.608 1.338-2.714 1.351-2.731a.692.692 0 0 0-.194-.925.69.69 0 0 0-.932.13c-6.077 7.416-10.208 8.957-11.387 8.19-.253-.165-.375-.487-.375-.917 0-.177.03-.379.071-.591 2.276-.81 4.905-2.366 7.692-5.22 1.642-1.68 2.524-3.257 2.524-4.453 0-.27-.044-.518-.134-.746-.243-.62-.804-1-1.535-1.038-2.184-.1-5.885 2.748-9.24 9.349-.183.363-.32.699-.431 1.024-3.523 1.053-5.87.117-6.026.051a.688.688 0 0 0-.903.366.68.68 0 0 0 .362.902c.166.075 2.605 1.074 6.252.194-.002.047-.01.098-.01.143 0 1.025.432 1.726.997 2.091 1.584 1.032 5.07.15 10.125-5.01-.326.932-.62 1.953-.808 3.01a.859.859 0 0 0-.011.135c0 .29.171.554.442.661.547.223.861-.231 1.138-.629l.7-1.043c.607-.914 1.973-2.969 2.898-4.043-.113.59-.226 1.257-.226 1.888 0 .853.207 1.635.897 2.04.578.333 1.505.454 3.515-.744.17.465.508.685.704.778 1.285.595 3.704-.693 6.228-3.108-.341.764-.601 1.4-.669 1.667a.928.928 0 0 0-.023.207.71.71 0 0 0 .419.655c.555.243.908-.24 1.186-.638l.761-1.1c.631-.933 2.116-3.116 2.982-4.022.258.627.716 1.42 1.54 1.882-.24.54-.36 1.01-.36 1.401 0 .48.18.846.542 1.093.65.44 1.635.198 2.662-.362-3.28 3.255-4.789 6.497-4.834 7.936-.002.027-.002.055-.002.083 0 .8.394 1.123.635 1.243.5.251 1.106.095 1.812-.463 2.47-1.963 4.269-6.617 5.186-9.466a27.576 27.576 0 0 1 4.333-2.874c-.54.944-.842 1.835-.842 2.556 0 .26.037.501.113.712.19.505.599.829 1.118.882 1.14.124 2.717-1.07 4.574-3.363-.158.456-.316.899-.473 1.332-5.16 4.067-7.48 8.415-7.778 10.773-.026.192-.04.37-.04.533 0 .94.38 1.375.728 1.573.392.224 1.06.332 2.04-.418 1.093-.835 3.696-4.915 6.218-11.638 3.348-2.571 7.934-5.031 14.04-6.719a.696.696 0 0 0 .51-.669"/>
        <path d="M72.494 26.488a1.035 1.035 0 0 0-1.928 0S66.77 36.22 66.335 37.33c-1.189.065-11.568.614-11.568.614-.55.028-.983.486-.983 1.032 0 .017.003.036.003.056a1.04 1.04 0 0 0 1.091.98l12.235-.65c.403-.019.76-.279.91-.655 0 0 2.316-5.953 3.507-8.999l3.489 8.96c.147.38.5.634.902.658 0 0 6.318.362 9.547.55-2.49 2.067-7.373 6.128-7.373 6.128a1.022 1.022 0 0 0-.347 1.05s1.57 6.129 2.377 9.271l-8.019-5.173a1.037 1.037 0 0 0-1.117-.005s-5.357 3.411-8.13 5.174c.846-3.051 2.366-8.544 2.366-8.544.02-.09.034-.185.034-.275a1.034 1.034 0 0 0-2.032-.274l-3.08 11.137a1.033 1.033 0 0 0 1.556 1.145s8.832-5.623 9.838-6.261c.995.644 9.68 6.246 9.68 6.246a1.037 1.037 0 0 0 1.6-.868.978.978 0 0 0-.036-.256l-2.869-11.195c.899-.75 8.893-7.388 8.893-7.388.24-.2.375-.494.375-.795 0-.11-.019-.219-.054-.324a1.029 1.029 0 0 0-.922-.708s-10.315-.592-11.503-.662c-.436-1.107-4.21-10.812-4.21-10.812M90.7 92.74H3.04V73.148H.882v21.747H92.859V73.149h-2.16z"/>
        <path d="M12.559 87.211H8.215v-3.795h3.95V82.2h-3.95v-3.523h4.253v-1.217H6.82v10.965h5.74zM15.555 78.921h.03l4.327 9.504h1.913V77.46h-1.247v9.387h-.028l-4.268-9.387h-1.974v10.964h1.247zM29.503 87.211H25.16v-3.795h3.95V82.2h-3.95v-3.523h4.254v-1.217h-5.65v10.965h5.74zM32.582 78.677h2.111c1.078 0 1.473.88 1.473 1.67 0 .96-.486 1.823-1.49 1.823h-2.094v-3.493zm0 4.71h1.64c.471 0 1.549.058 1.654 1.396.12 1.456.032 2.885.426 3.643h1.46c-.215-.682-.366-2.4-.383-2.871-.073-2.202-.527-2.624-1.79-2.824v-.03c1.29-.228 2.005-1.213 2.005-2.503 0-1.368-.684-2.737-2.63-2.737h-3.778v10.965h1.396v-5.04zM42.412 88.655c1.415 0 2.462-.333 3.357-.82v-5.332h-3.415v1.215h2.02v3.281c-.291.211-.958.485-1.962.485-1.32 0-2.017-.605-2.017-3.005v-3.705c0-2.295 1.578-2.37 2.017-2.37 1.415 0 1.946.697 1.946 1.99h1.456c.092-2.295-1.03-3.16-3.402-3.16-2.32 0-3.447 1.398-3.447 3.585v3.598c0 3.036 1.126 4.238 3.447 4.238M49.488 88.425h1.396v-4.178l2.99-6.785h-1.412l-2.217 5.299-2.14-5.299H46.54l2.948 6.785zM60.415 88.655c1.808 0 3.404-.746 3.404-3.053 0-3.476-4.92-3.13-4.92-5.542 0-1.187.85-1.61 1.686-1.61 1.32 0 1.699.789 1.684 1.99h1.458c.092-2.234-1.033-3.206-3.037-3.206-1.839 0-3.221 1.033-3.221 2.977 0 3.298 4.92 3.023 4.92 5.451 0 1.305-.85 1.776-1.957 1.776-.895 0-1.839-.47-1.839-1.959v-.318h-1.38c-.032 1.05-.032 3.523 3.202 3.494M67.334 88.425h1.397v-9.748h2.884v-1.215h-7.167v1.215h2.886zM74.752 78.754h.03l1.763 5.847h-3.507l1.714-5.847zm-2.884 9.67l.821-2.61h4.237l.789 2.61h1.563l-3.567-10.963h-1.779l-3.475 10.964h1.41zM81.752 78.677h2.112c1.077 0 1.471.88 1.471 1.67 0 .96-.488 1.823-1.488 1.823h-2.095v-3.493zm0 4.71h1.639c.473 0 1.55.058 1.656 1.396.12 1.456.03 2.885.427 3.643h1.456c-.214-.682-.363-2.4-.378-2.871-.076-2.202-.533-2.624-1.793-2.824v-.03c1.288-.228 2.002-1.213 2.002-2.503 0-1.368-.682-2.737-2.626-2.737h-3.78v10.965h1.397v-5.04z"/>
    </g>
</svg>
