<?xml version="1.0" encoding="utf-8"?>

<svg xmlns="http://www.w3.org/2000/svg" width="42" height="66" viewBox="0 0 42 66">
    <g fill="#FFF" fill-rule="evenodd">
        <path d="M15.617 0h14.149c0 1.608 1.327 2.913 2.965 2.913 1.639 0 2.966-1.305 2.966-2.913h6.01v15.337h-6.01c0-1.608-1.327-2.913-2.966-2.913-1.638 0-2.965 1.305-2.965 2.913h-14.15c0-3.055-2.52-5.53-5.63-5.53s-5.632 2.475-5.632 5.53H0C0 6.867 6.992 0 15.617 0zM18.48 18.446h8.42l1.574 43.836c0 1.936-2.589 3.505-5.784 3.505-3.194 0-5.783-1.57-5.783-3.505l1.573-43.836z"/>
    </g>
</svg>
