<?xml version="1.0" encoding="utf-8"?>

<svg xmlns="http://www.w3.org/2000/svg" width="45" height="68" viewBox="0 0 45 68">
    <g fill="none" fill-rule="evenodd" stroke="#FEFEFE">
        <path stroke-width="1.996" d="M16.862 1h14.372c0 1.606 1.348 2.91 3.011 2.91 1.665 0 3.013-1.304 3.013-2.91h6.104v15.322h-6.104c0-1.606-1.348-2.91-3.013-2.91-1.663 0-3.011 1.304-3.011 2.91H16.862c0-3.052-2.561-5.524-5.719-5.524-3.16 0-5.72 2.472-5.72 5.524H1C1 7.86 8.102 1 16.862 1z"/>
        <path stroke-width="2.395" d="M19.77 19.427h8.553l1.599 43.793c0 1.933-2.63 3.5-5.875 3.5s-5.874-1.567-5.874-3.5l1.598-43.793z"/>
    </g>
</svg>
