<?xml version="1.0" encoding="utf-8"?>

<svg xmlns="http://www.w3.org/2000/svg" xmlns:xlink="http://www.w3.org/1999/xlink" width="205" height="34" viewBox="0 0 205 34">
    <defs>
        <path id="a" d="M.15 33.93h205.172V0H.15z"/>
    </defs>
    <g fill="none" fill-rule="evenodd">
        <path fill="#FEFEFE" d="M.15 17.454v-.09C.15 8.08 7.515.798 17.504.798c5.664 0 9.667 1.728 13.075 4.642l-5.248 6.234c-2.302-1.912-4.604-3.003-7.781-3.003-4.65 0-8.24 3.868-8.24 8.738v.09c0 5.144 3.638 8.83 8.747 8.83 2.163 0 3.82-.455 5.156-1.32V21.14H16.86v-6.464h14.824v14.337c-3.407 2.777-8.148 4.915-13.995 4.915C7.654 33.93.15 27.104.15 17.454"/>
        <mask id="b" fill="#fff">
            <use xlink:href="#a"/>
        </mask>
        <path fill="#FEFEFE" d="M36.873 33.53h8.383V0h-8.383zM66.596 18.895c-.322-2.75-1.935-4.494-4.33-4.494-2.303 0-3.868 1.79-4.33 4.494h8.66zm-16.95 2.153v-.09c0-7.244 5.205-12.975 12.574-12.975 8.612 0 12.574 6.281 12.574 13.57 0 .55 0 1.192-.046 1.788H58.075c.69 2.706 2.672 4.08 5.388 4.08 2.073 0 3.732-.778 5.528-2.52l4.835 3.988c-2.393 3.023-5.848 5.04-10.822 5.04-7.83 0-13.357-5.178-13.357-12.88zM79.983 8.538h8.632v3.511c1.591-2.079 3.863-4.066 7.359-4.066 5.226 0 8.359 3.511 8.359 9.193V33.53H95.7V19.995c0-2.727-1.409-4.206-3.453-4.206-2.089 0-3.633 1.479-3.633 4.206V33.53h-8.632V8.538zM141.22 25.737v-10.07h-2.958V8.664h2.958V2.395h8.782v6.27h5.823v7.002h-5.823v8.376c0 1.74.784 2.473 2.403 2.473 1.155 0 2.265-.32 3.329-.825v6.82c-1.573.869-3.653 1.418-6.102 1.418-5.269 0-8.412-2.288-8.412-8.192M175.252 24.457v-1.139c-.875-.364-2.117-.637-3.407-.637-2.53 0-4.003 1.229-4.003 3.052v.09c0 1.686 1.288 2.687 3.083 2.687 2.532 0 4.327-1.593 4.327-4.053m-15.834 1.868v-.093c0-5.099 3.912-7.742 9.757-7.742 2.302 0 4.558.457 5.985.958v-.41c0-2.551-1.612-4.007-4.97-4.007-2.625 0-4.65.502-6.86 1.365l-1.795-6.102c2.806-1.139 5.8-1.911 10.08-1.911 4.466 0 7.503 1.046 9.483 3.004 1.888 1.821 2.67 4.372 2.67 7.833v14.163h-8.655v-2.55c-1.702 1.867-4.05 3.096-7.319 3.096-4.74 0-8.376-2.686-8.376-7.604M188.557 8.804h8.614v4.981c1.405-3.382 3.672-5.575 7.752-5.392v9.14h-.726c-4.487 0-7.026 2.606-7.026 8.32v7.677h-8.614V8.804zM123.931 13.428c-4.435-1.008-5.533-1.648-5.533-3.112v-.091c0-1.144 1.052-2.06 3.203-2.06 2.834 0 6.035 1.097 8.962 3.159L135 5.054C131.522 2.26 127.27.797 121.828.797c-7.682 0-12.394 4.3-12.394 10.25v.092c0 6.45 5.041 8.428 11.644 9.968l1.81-5.048 2.098 5.848 6.205.187-4.91 3.802 1.74 5.964-5.133-3.497-5.13 3.497 1.685-5.782c-2.314-.591-4.525-1.722-6.579-3.36l-4.939 5.902c3.934 3.524 9.33 5.308 15 5.308 7.776 0 12.942-3.889 12.942-10.434v-.09c0-5.995-4.572-8.376-11.936-9.977" mask="url(#b)"/>
    </g>
</svg>
