<?xml version="1.0" encoding="utf-8"?>

<svg xmlns="http://www.w3.org/2000/svg" width="48" height="46" viewBox="0 0 48 46">
    <g fill="none" fill-rule="evenodd" stroke="#FFF" stroke-width="1.996">
        <path d="M13.18 3.972L3.423 1.08a1.933 1.933 0 0 0-1.663.272C1.283 1.695 1 2.232 1 2.804v36.614c0 .794.539 1.493 1.322 1.726l9.758 2.89a1.927 1.927 0 0 0 1.661-.273c.479-.34.76-.878.76-1.45V5.697c0-.795-.535-1.494-1.32-1.726M29.672 1.353a1.932 1.932 0 0 0-1.663-.271L18.25 3.974c-.784.234-1.32.933-1.32 1.724v36.613c0 .574.279 1.11.757 1.451.327.232.716.352 1.113.352.183 0 .37-.025.55-.079l9.76-2.892c.785-.228 1.322-.93 1.322-1.72V2.803a1.801 1.801 0 0 0-.761-1.451M45.041 3.973l-9.758-2.892a1.928 1.928 0 0 0-1.663.275c-.478.34-.76.877-.76 1.451v36.615c0 .79.538 1.489 1.325 1.722l9.756 2.892a1.94 1.94 0 0 0 1.661-.275c.48-.34.761-.877.761-1.45V5.697a1.81 1.81 0 0 0-1.322-1.725"/>
    </g>
</svg>
