<?xml version="1.0" encoding="utf-8"?>

<svg xmlns="http://www.w3.org/2000/svg" width="45" height="44" viewBox="0 0 45 44">
    <g fill="#FEFEFE" fill-rule="evenodd">
        <path d="M12.35 3.866L2.91.975A1.81 1.81 0 0 0 .568 2.699V39.3c0 .794.521 1.492 1.279 1.726l9.438 2.89a1.823 1.823 0 0 0 1.607-.273c.462-.34.734-.88.734-1.451v-36.6c0-.795-.517-1.494-1.277-1.726M28.3 1.248A1.819 1.819 0 0 0 26.69.977l-9.438 2.891a1.807 1.807 0 0 0-1.277 1.724v36.6a1.798 1.798 0 0 0 1.809 1.802c.177 0 .358-.025.532-.078l9.44-2.892a1.797 1.797 0 0 0 1.279-1.72V2.7a1.819 1.819 0 0 0-.736-1.451M43.165 3.868L33.727.976a1.815 1.815 0 0 0-1.609.275 1.8 1.8 0 0 0-.734 1.45v36.603c0 .79.52 1.488 1.28 1.722l9.437 2.891a1.835 1.835 0 0 0 1.607-.275c.464-.34.736-.877.736-1.45v-36.6a1.802 1.802 0 0 0-1.279-1.724"/>
    </g>
</svg>
