<?xml version="1.0" encoding="utf-8"?>

<svg xmlns="http://www.w3.org/2000/svg" width="51" height="50" viewBox="0 0 51 50">
    <path fill="none" fill-rule="evenodd" stroke="#FFF" stroke-width="1.996" d="M29.424 24.263c-2.378 1.765-2.43 3.008-2.446 5.159-.004.786-.44 1.695-2.548 1.68-1.765-.012-2.362-.637-2.347-2.789.026-3.561 1.672-5.247 2.926-6.274 1.43-1.15 3.847-2.417 3.863-4.652.013-1.904-1.7-2.827-3.85-2.842-4.389-.028-3.465 3.166-5.787 3.15-1.161-.007-2.576-.763-2.563-2.378.014-2.235 2.705-5.53 8.511-5.49 5.508.037 9.142 3 9.114 6.893-.028 3.891-3.704 6.683-4.873 7.543m-5.017 15.054c-1.794-.013-3.161-1.467-3.15-3.114.013-1.688 1.44-3.084 3.195-3.072 1.752.013 3.202 1.428 3.189 3.114-.011 1.647-1.44 3.082-3.234 3.072m23.637-23.925a23.486 23.486 0 0 0-5.246-7.49 24.485 24.485 0 0 0-7.782-5.05A25.172 25.172 0 0 0 25.486 1c-3.307 0-6.514.624-9.533 1.852a24.485 24.485 0 0 0-7.782 5.05 23.486 23.486 0 0 0-5.247 7.49A22.687 22.687 0 0 0 1 24.566a22.85 22.85 0 0 0 3.537 12.207L1.511 47.641l11.292-2.913c3.815 2.227 8.193 3.403 12.682 3.403 3.304 0 6.512-.622 9.53-1.852a24.454 24.454 0 0 0 7.783-5.05 23.447 23.447 0 0 0 5.246-7.49 22.673 22.673 0 0 0 1.925-9.173c0-3.181-.649-6.267-1.925-9.174"/>
</svg>
