<?xml version="1.0" encoding="utf-8"?>

<svg xmlns="http://www.w3.org/2000/svg" width="49" height="48" viewBox="0 0 49 48">
    <path fill="#FEFEFE" fill-rule="evenodd" d="M28.317 23.947c-2.3 1.765-2.35 3.007-2.366 5.159-.004.786-.427 1.695-2.465 1.68-1.707-.012-2.284-.638-2.27-2.79.026-3.56 1.618-5.247 2.83-6.274 1.384-1.15 3.721-2.417 3.737-4.652.013-1.904-1.644-2.827-3.724-2.841-4.245-.029-3.351 3.165-5.598 3.15-1.123-.008-2.491-.764-2.479-2.378.015-2.236 2.617-5.53 8.233-5.49 5.327.037 8.842 3 8.815 6.892-.027 3.892-3.583 6.683-4.713 7.544M23.465 39c-1.736-.012-3.058-1.467-3.047-3.114.012-1.688 1.393-3.084 3.09-3.071 1.694.012 3.097 1.428 3.084 3.114-.01 1.647-1.394 3.082-3.127 3.071m22.861-23.925a23.508 23.508 0 0 0-5.074-7.49A23.651 23.651 0 0 0 24.507.683 23.654 23.654 0 0 0 7.76 7.585a23.508 23.508 0 0 0-5.074 7.49A23.345 23.345 0 0 0 .825 24.25c0 4.319 1.182 8.535 3.42 12.207L1.32 47.324l10.921-2.912a23.722 23.722 0 0 0 12.267 3.403 23.62 23.62 0 0 0 9.218-1.852 23.587 23.587 0 0 0 7.527-5.05 23.469 23.469 0 0 0 5.074-7.49 23.33 23.33 0 0 0 1.862-9.173c0-3.182-.627-6.267-1.862-9.175"/>
</svg>
