<?xml version="1.0" encoding="utf-8"?>

<svg xmlns="http://www.w3.org/2000/svg" xmlns:xlink="http://www.w3.org/1999/xlink" width="113" height="113" viewBox="0 0 113 113">
    <defs>
        <path id="a" d="M0 .025h112.138v112.141H0z"/>
    </defs>
    <g fill="none" fill-rule="evenodd">
        <g transform="translate(0 .046)">
            <mask id="b" fill="#fff">
                <use xlink:href="#a"/>
            </mask>
            <path fill="#FEFEFE" d="M56.07 110.056c-29.802 0-53.96-24.16-53.96-53.962 0-29.799 24.158-53.958 53.96-53.958 29.798 0 53.959 24.16 53.959 53.958 0 29.801-24.161 53.962-53.958 53.962m0-110.031C25.115.025.02 25.108 0 56.057v.075c.02 30.948 25.107 56.028 56.056 56.035h.028c30.96-.007 56.054-25.107 56.054-56.073C112.138 25.127 87.036.025 56.07.025" mask="url(#b)"/>
        </g>
        <path fill="#FEFEFE" d="M39.039 19.208c.433-.186 1.545-.657 1.545-.657.355-.15.58-.34.669-.565l-.062-.735-.494-.535c-.23-.092-.518-.071-.834.064l-1.574.67.75 1.758M15.013 39.181c-.55-.206-.994.012-1.213.6 0 0-.524 1.4-.648 1.735l1.724.646.648-1.735c.054-.147.094-.308.094-.47 0-.304-.143-.603-.605-.776M93.265 39.226c0 .21.046.429.143.648.436.996 1.482 1.221 2.87.613.802-.352 1.341-.82 1.548-1.35.142-.369.125-.763-.051-1.17-.438-.987-1.48-1.209-2.864-.602-1.076.472-1.646 1.127-1.646 1.861M66.732 16.236c.466-.287.791-.817.975-1.577.073-.297.105-.573.105-.825 0-.396-.084-.738-.26-1.022-.265-.432-.737-.732-1.406-.89 0 0-.392-.096-.636-.152-.092.38-.979 4.092-1.069 4.472l.633.15c.67.162 1.228.109 1.658-.156M39.79 14.86a.775.775 0 0 0-.066-.301c-.186-.441-.509-.558-.98-.357l-1.554.663c.117.272.429 1.007.545 1.281l1.555-.661c.398-.171.5-.419.5-.625M65.074 99.672l-1.842.381.37 1.794 1.844-.38c.676-.139.919-.563.806-1.108-.124-.595-.501-.828-1.178-.687M65.462 97.627c-.09-.434-.387-.614-.992-.489l-1.764.365.273 1.32 1.835-.38c.574-.118.726-.427.648-.816M34.874 86.97l-.853-4.419-1.098.214 1.06 5.501 3.86-.745-.208-1.084zM40.213 86.057c-.082-.045-.17-.085-.253-.13l-.167-1.177 1.594-.226-.154-1.078-1.59.224-.136-.958 2.74-.387-.152-1.086-3.852.543.485 3.44.298 2.11 2.936-.415 1.037-.146-.154-1.086-2.632.372zM45.365 85.429l-.12-1.345 1.602-.145-.098-1.085-1.602.146-.087-.967 2.758-.246-.098-1.095-3.875.35.502 5.581 3.993-.36-.098-1.093zM51.315 85.028l-.55.02-.128-3.423.591-.025c1.184-.041 1.693.507 1.734 1.651.04 1.026-.472 1.734-1.647 1.777m.35-4.51a4.79 4.79 0 0 0-.437-.005l-1.752.064.207 5.6 1.671-.062c1.44-.054 2.834-.937 2.761-2.907a4.28 4.28 0 0 0-.066-.61c-.25-1.41-1.17-2.008-2.385-2.08M60.159 86.21c1.296.054 2.282-.722 2.34-2.163l.03-.734-2.01-.085-.04 1.048.888.036c-.085.487-.363.836-1.131.804-.84-.036-1.296-.817-1.255-1.848.043-1.039.554-1.756 1.394-1.72.608.026.85.347 1.044.773l1.08-.396c-.297-.781-.793-1.311-1.703-1.452a3.373 3.373 0 0 0-.357-.036c-1.452-.06-2.515 1.058-2.605 2.733l-.006.05c-.073 1.768.866 2.929 2.33 2.99M64.853 83.605c.097-.998.544-1.736 1.446-1.648.9.087 1.2.896 1.102 1.892-.094.995-.544 1.731-1.444 1.645-.902-.086-1.198-.896-1.104-1.89m.997 2.998c1.525.147 2.537-.946 2.7-2.644.164-1.698-.625-2.962-2.146-3.109-1.52-.146-2.534.947-2.697 2.643-.163 1.698.622 2.966 2.143 3.11M73.456 87.501l.165-1.095-1.846-.272-.936-.139.66-4.45-1.107-.165-.824 5.545.447.065zM76.643 83.507l.583.117c1.16.235 1.527.888 1.301 2.011-.204 1.003-.866 1.572-2.02 1.34l-.542-.11.678-3.358zm3.013 2.354c.404-2.008-.609-2.98-2.179-3.296l-.2-.04-1.518-.306-.342 1.7-.766 3.794 1.641.33c1.414.284 2.973-.25 3.364-2.182zM97.11 96.5h.73v3.222h.384V96.5h.725v-.325h-1.84zM100.5 98.857h-.01l-.616-2.682h-.61v3.546h.35v-3.25h.012l.738 3.25h.252l.736-3.25h.008v3.25h.353v-3.546h-.609z"/>
        <path fill="#FEFEFE" d="M102.38 64.297c-.204 1.195-.814 1.96-1.866 2.34l-.2.074-.59-1.437.206-.086c.609-.256.853-.545.956-1.146.073-.43-.005-.811-.23-1.127-.33-.462-.966-.787-1.838-.933-1.491-.252-2.449.21-2.63 1.27-.106.619.053 1.05.54 1.487l.173.154-1.035 1.095-.16-.135c-.847-.703-1.21-1.715-1.012-2.855.321-1.909 2.08-2.932 4.382-2.541 1.235.206 2.236.768 2.811 1.577.46.648.633 1.435.492 2.263zm-1.762 6.587l-7.23-2.261.385-1.234.068-.214 7.224 2.26-.447 1.45zm-1.6 4.15l-5.515-2.546-1.487 3.225-1.36-.625 2.028-4.4.094-.204 6.878 3.172-.639 1.379zM73.802 100.36c-1.715.699-3.405-.143-4.25-2.216-.814-1.995-.18-3.87 1.536-4.572 1.24-.505 2.233-.212 2.994.476l-.992 1.057c-.417-.355-.898-.464-1.487-.222-.987.402-1.197 1.492-.701 2.713.48 1.177 1.422 1.848 2.406 1.446.592-.243.834-.635.943-1.36l1.376.205c-.073 1.113-.636 1.987-1.825 2.473zm-8.135 2.434l-3.155.65-1.431-6.938 3.183-.657c1.35-.282 2.337.191 2.581 1.38.124.594-.054 1.125-.456 1.501.606.131 1.127.552 1.286 1.313.297 1.461-.52 2.447-2.008 2.751zm-9.413 1.204c-1.852.03-3.121-1.365-3.157-3.604-.036-2.158 1.236-3.676 3.09-3.706 1.446-.024 2.227.643 2.712 1.728l-1.34.579c-.27-.524-.602-.915-1.373-.898-1.06.015-1.652.958-1.632 2.273.023 1.307.656 2.255 1.719 2.24.97-.017 1.3-.477 1.369-1.098l-1.123.018-.023-1.322 2.543-.043.014.931c.031 1.822-1.16 2.874-2.799 2.902zm-7.665-4.966c1.063.445 2.228 1.028 1.978 2.543-.222 1.332-1.208 2.09-3.116 1.775-1.168-.195-2.107-.856-2.507-1.722l1.16-.729c.395.65.986.986 1.653 1.095.83.137 1.257-.028 1.347-.558.071-.45-.132-.687-1.403-1.207-1.238-.515-2.07-1.069-1.839-2.45.21-1.269 1.458-1.863 2.836-1.632 1.09.179 1.82.724 2.363 1.522l-1.172.811c-.372-.535-.828-.875-1.467-.984-.75-.124-1.052.154-1.102.464-.074.44.202.63 1.27 1.072zM42.573 99c-.71 1.927-2.128 2.668-3.819 2.045-1.604-.594-2.287-2.076-1.574-4.012l1.377-3.734 1.33.49-1.37 3.716c-.392 1.064-.127 1.925.718 2.238.847.31 1.61-.152 2.002-1.217l1.375-3.734 1.33.493-1.37 3.715zm13.074-9.465h.345c1.617 0 3.234.042 4.853.117a33.887 33.887 0 0 1-4.774.347c-1.666 0-3.302-.131-4.904-.368a108.14 108.14 0 0 1 4.48-.096zM12.762 73.931l4.051-1.52c.647-.242 1.065-.561 1.244-.952.133-.293.13-.631-.013-1.009-.216-.573-.673-1.267-2.157-.712l-4.116 1.542-.534-1.42 4.098-1.536c1.997-.75 3.466-.176 4.138 1.612.648 1.726-.12 3.142-2.098 3.884l-4.08 1.532-.533-1.421zm-3.227-12c-.114-.954.123-1.801.724-2.594l.135-.182 1.21.933-.143.177c-.37.464-.504.947-.429 1.564.042.361.162.626.34.767l.432.11c.297-.035.492-.153.72-1.494.234-1.325.565-2.527 2.05-2.705.675-.08 1.246.056 1.7.413.549.43.889 1.15 1.009 2.138a3.547 3.547 0 0 1-.894 2.834l-.14.156-1.173-.947.148-.175c.42-.492.637-1.17.564-1.769-.133-1.099-.584-1.187-.958-1.144-.359.043-.569.29-.785 1.554-.252 1.485-.528 2.471-2.006 2.65a2.045 2.045 0 0 1-1.536-.412c-.526-.411-.872-1.078-.968-1.874zm7.447-5.42a1.046 1.046 0 0 1-1.01 1.047 1.053 1.053 0 0 1-1.057-1.012 1.05 1.05 0 0 1 1.021-1.046 1.047 1.047 0 0 1 1.046 1.01zm-7.114-8.364c.199-1.18.826-1.965 1.863-2.338l.203-.075.582 1.425-.205.086c-.604.254-.843.543-.946 1.156-.075.433.004.815.23 1.136.333.464.966.789 1.834.937 1.493.252 2.451-.216 2.631-1.28.02-.12.03-.234.03-.343 0-.287-.071-.531-.214-.732-.199-.28-.49-.402-.753-.47-.05.305-.188 1.116-.188 1.116l-1.455-.244.449-2.66 1.034.173c.95.162 1.693.588 2.15 1.23.43.603.583 1.356.442 2.183-.139.828-.556 1.512-1.207 1.974-.808.574-1.935.78-3.174.567-1.238-.21-2.237-.768-2.814-1.58a2.897 2.897 0 0 1-.539-1.703c0-.182.015-.368.047-.558zm7.556 18.876a1.047 1.047 0 0 1-1.259-.744 1.048 1.048 0 0 1 .755-1.251h.002a1.048 1.048 0 0 1 1.25.746 1.048 1.048 0 0 1-.748 1.249zM12.435 39.27c.549-1.452 1.728-2.038 3.082-1.531 1.022.381 1.569 1.127 1.569 2.117l-.002.043c.443-.049 3.334-.357 3.334-.357l-.607 1.625-3.137.338c-.067.18-.332.884-.435 1.164l2.64.988-.524 1.403-7.092-2.654 1.172-3.136zm4.73-9.205l.116-.192 1.275.767s-1.61 2.68-1.81 3.02c.25.148.875.522 1.125.672.182-.306 1.052-1.752 1.052-1.752l1.273.762-1.05 1.756c.276.166 1.266.76 1.544.924.203-.336 1.89-3.151 1.89-3.151l1.273.766-2.67 4.453-6.494-3.895 2.476-4.13zm5.024-6.258l.146-.167 1.125.969s-2.041 2.37-2.297 2.669l.994.854c.233-.268 1.335-1.55 1.335-1.55l1.127.972s-1.104 1.279-1.335 1.55l1.363 1.173c.26-.299 2.399-2.783 2.399-2.783l1.127.97-3.387 3.933-5.74-4.941 3.143-3.65zm3.48-3.248l4.947 1.738.314.118-.532-.654-2.44-3.039.983-.792.176-.14 4.743 5.906-1.065.853-5.128-1.745-.202-.072.53.646 2.45 3.056-1.157.932-4.742-5.905 1.123-.902zm12.526-7.672c.666-.284 1.297-.323 1.821-.113.472.19.846.583 1.08 1.133.106.248.156.492.156.73 0 .288-.174.549-.325.814.598.034 1.287.327 1.647 1.18.164.377.245.741.245 1.08 0 .26-.05.51-.143.745-.242.603-.785 1.087-1.61 1.437l-2.81 1.196-2.965-6.966 2.904-1.236zm6.737-2.231l.901 4.227c.256 1.197.847 1.706 1.76 1.51.595-.13 1.352-.482 1.024-2.028l-.92-4.3 1.263-.271.22-.045.915 4.278c.234 1.091.13 1.99-.31 2.667-.39.603-1.028 1.001-1.895 1.187-.836.178-1.557.077-2.147-.304-.682-.445-1.148-1.234-1.384-2.344l-.911-4.262 1.484-.315zM53.445 9.4l.222-.015.516 7.554-1.511.105-.517-7.555 1.29-.089zm2.29 51.763c0-8.805.21-18.399.21-18.399s.08-.364.323-.364c.246 0 .288.364.288.364s.212 9.594.212 18.399c0 4.956-.068 11.188-.126 15.696-.173 0-.34-.004-.513-.004h-.27c-.058-4.508-.124-10.738-.124-15.692zm-34.14 33.319L17.454 84.19c1.765-.815 15.658-6.882 38.05-6.882h.625c22.386 0 36.287 6.067 38.052 6.882l-4.145 10.29C78.81 90.899 67.359 89.08 55.992 89.08h-.345c-11.369 0-22.822 1.818-34.052 5.402zm34.476-72.2c18.695 0 33.854 15.16 33.854 33.858 0 9.034-3.548 17.233-9.314 23.303-4.171-.926-9.212-1.76-15.027-2.216.071-.038.14-.074.2-.098 1.56-.714 5.262-2.293 9.396-3.15 4.14-.856 10.369-5.499 7.98-8.164-.905-1.007-2.06-.458-2.817-.282-1.877.443-1.123-1.057.251-1.715.528-.247 6.944-2.223 5.468-6.051-1.033-2.691-3.026.496-4.414-.54-.447-.331-.723-.596 1.226-2.488 1.954-1.9 2.547-3.243 2.74-4.411.192-1.165.192-2.059-.612-2.506-.798-.449-1.857.738-2.176-.494-.196-.661.058-1.031.06-2.212.003-1.293-1.32-4.52-4.399-3.432-1.993.703-.937 4.138-1.448 4.788-.53.666-.977-1.371-2.096-1.69-1.289-.369-2.19.826-2.18 1.934.013 1.108.734 3.17.97 3.97.134.631.477 2.357.261 2.863-.328.762-.61.514-1.346-.457-.646-.858-.306-.498-1.45-1.876-1.426-1.758-2.293.68-2.397 2.308-.105 1.63 1.135 7.303 1.114 8.056-.086 3.401-1.978-.5-2.04-.594-1.24-1.89-3.628-1.003-2.88 1.028 1.359 3.698 2.582 6.892 1.295 10.067-.176.422-.406 1.164-.723 1.898 10.48-9.759 13.365-23.278 13.369-23.293.037-.14.287-.274.415-.23.131.039.192.3.152.442-.006.02-2.648 15.49-15.653 26.205a121.894 121.894 0 0 0-6.27-.235c.193-.995.516-1.7 1.094-2.043 9.844-5.845 6.647-8.531 4.607-8.93-2.043-.4-3.208-3.739-.392-5.189 4.954-2.787 7.488-12.736 1.333-10.56-.561.048-4.609 2.152-1.04-3.95 3.377-6.106 2.336-11.542-1.165-9.173-.918.62-3.518 3.373-2.997-.61.93-6.04-.567-8.193-2.34-8.59 0 0-.186-.032-.335-.049l-.161.008v-.017c-.105-.01-.496.058-.496.058-1.775.397-3.268 2.55-2.34 8.59.518 3.983-2.08 1.23-2.998.61-3.5-2.369-4.541 3.067-1.164 9.173 3.566 6.102-.48 3.998-1.04 3.95-6.156-2.176-3.624 7.773 1.336 10.56 2.812 1.45 1.646 4.79-.394 5.19-2.04.398-5.24 3.084 4.603 8.929.577.343.904 1.044 1.101 2.035a123.02 123.02 0 0 0-6.326.2c-12.96-10.714-15.596-26.143-15.6-26.162-.04-.142.06-.403.19-.443.128-.043.332.184.372.323.004.017 2.894 13.442 13.376 23.201-.317-.734-.548-1.476-.723-1.898-1.287-3.175-.064-6.37 1.296-10.067.746-2.03-1.642-2.917-2.881-1.028-.062.094-1.953 3.995-2.04.594-.022-.753 1.217-6.426 1.114-8.056-.105-1.628-.971-4.066-2.395-2.308-1.15 1.378-.807 1.018-1.457 1.876-.735.971-1.016 1.22-1.345.457-.214-.506.128-2.232.263-2.863.238-.8.96-2.862.97-3.97.01-1.108-.891-2.303-2.18-1.935-1.119.32-1.568 2.357-2.096 1.69-.51-.65.545-4.084-1.448-4.787-3.08-1.087-4.402 2.14-4.398 3.432.001 1.181.255 1.551.058 2.212-.318 1.232-1.375.045-2.177.494-.802.447-.804 1.341-.612 2.506.197 1.168.79 2.51 2.742 4.411 1.95 1.892 1.671 2.157 1.226 2.487-1.388 1.037-3.379-2.15-4.415.541-1.473 3.828 4.94 5.804 5.467 6.051 1.373.658 2.13 2.158.254 1.715-.757-.176-1.912-.725-2.818.282-2.389 2.665 3.841 7.308 7.979 8.164 4.136.857 7.837 2.436 9.4 3.15.03.011.066.032.1.047-5.892.43-11.006 1.25-15.25 2.175-5.713-6.06-9.227-14.222-9.227-23.21 0-18.7 15.159-33.858 33.86-33.858zm.432-12.786l.013-.223 1.514.086-.346 6.066 3.548.201-.088 1.495-5.058-.289.417-7.336zm7.826.691l.051-.216 2.11.504c2.25.539 3.267 2.235 2.711 4.541-.65 2.716-2.736 3.238-4.47 2.825l-2.11-.505 1.708-7.149zm8.125 2.297l.083-.21 1.41.556-2.762 7.047-1.413-.554 2.682-6.839zm4.3 1.516l1.247.712.206 5.24.002.336c.17-.295.415-.734.415-.734l1.93-3.389 1.291.737-3.75 6.579-1.186-.676-.26-5.408-.004-.214-.412.727-1.938 3.403-1.292-.736 3.638-6.384.112-.193zm7.873 5.884c.796-.062 1.553.197 2.19.744.907.778 1.258 1.72 1.046 2.804l-.043.21-1.522-.236.03-.222c.1-.644-.03-1-.501-1.403-.33-.29-.699-.419-1.091-.39-.57.045-1.172.42-1.747 1.089-.571.668-.855 1.324-.81 1.891.032.39.215.735.549 1.022.338.29.678.422 1.016.396.344-.026.597-.214.789-.402l-.858-.738.96-1.12 2.048 1.759-.685.794c-.627.73-1.375 1.15-2.164 1.208-.736.056-1.46-.201-2.096-.748-.638-.546-1.005-1.256-1.069-2.05-.073-.99.333-2.061 1.152-3.013.819-.954 1.816-1.52 2.806-1.595zm3.6 12.304c.186-.975.862-1.9 1.903-2.605 1.927-1.307 3.953-1.11 5.039.492.68 1.003.77 1.976.272 2.979l-.095.193-1.42-.63.092-.205c.263-.607.236-.98-.106-1.486-.246-.363-.561-.584-.944-.657-.556-.107-1.238.1-1.97.595-1.251.849-1.627 1.848-1.028 2.735.355.52.763.723 1.42.7l.23-.007.016 1.506-.214.013c-1.095.077-2.057-.407-2.705-1.36-.471-.7-.642-1.478-.49-2.263zm10.939 5.17c.336.776.36 1.58.071 2.326-.362.922-1.196 1.71-2.344 2.21-1.15.504-2.29.58-3.213.22-.746-.29-1.32-.856-1.659-1.632-.338-.768-.362-1.57-.073-2.314.362-.924 1.196-1.709 2.346-2.21 2.135-.938 4.092-.374 4.872 1.4zm2.09 5.872l.323 1.48-4.226.926c-.678.15-1.136.407-1.369.77-.169.268-.212.603-.128.997.096.428.275.721.549.898.34.22.84.257 1.484.115l4.299-.943.323 1.482-4.275.937c-2.083.456-3.456-.32-3.867-2.185-.396-1.8.563-3.093 2.63-3.547l4.036-.883.221-.047zm1.64 9.026l.034 1.435-4.395 2.866-.286.177.843-.024 3.896-.081.03 1.485-7.567.156-.03-1.363 4.51-2.998s.108-.067.18-.114c-.177.003-.834.022-.834.022l-3.918.08-.03-1.487 7.345-.15.222-.004zM56.069 4.168c-28.702 0-51.975 23.268-51.975 51.972 0 15.276 6.59 29.01 17.084 38.52l.075.188c.045.11.168.169.28.131h.004c9.18 8.17 21.276 13.136 34.532 13.136 28.702 0 51.973-23.27 51.973-51.975 0-28.704-23.27-51.972-51.973-51.972z"/>
    </g>
</svg>
