<?xml version="1.0" encoding="utf-8"?>

<svg xmlns="http://www.w3.org/2000/svg" width="106" height="133" viewBox="0 0 106 133">
    <g fill="#FEFEFE" fill-rule="evenodd">
        <path d="M60.003 50.772a66.528 66.528 0 0 1-.744 2.893l3.672-.569 10.925 1.687V52.01l-10.929-1.688-2.924.45zM49.762 52.308l4.368-.817v-2.659l-3.705.694a66.79 66.79 0 0 1-.663 2.782"/>
        <path d="M73.857 49.218l-10.692-1.985-.237-.045-2.263.422a65.687 65.687 0 0 1-.567 2.766l2.834-.53 10.925 2.027v-2.655z"/>
        <path d="M73.857 46.423l-10.929-2.367-1.754.384a69.09 69.09 0 0 1-.413 2.628l2.17-.468 10.926 2.365v-2.542zM54.132 45.973l-3.161.691a69.669 69.669 0 0 1-.506 2.653l3.667-.8v-2.544z"/>
        <path d="M73.857 43.633l-10.929-2.709-1.39.35a68.75 68.75 0 0 1-.278 2.493l1.672-.412 10.925 2.702v-2.424zM40.693 48.89l3.574-.892v-2.426l-3.106.776c-.143.874-.297 1.721-.468 2.542M54.132 43.118l-2.737.677c-.11.866-.23 1.706-.368 2.525l3.105-.778v-2.424zM44.268 43.02l-2.737.77c-.101.82-.22 1.626-.347 2.405l3.084-.86V43.02zM73.857 40.836l-10.929-3.043-1.17.33c-.04.801-.092 1.586-.154 2.356l1.328-.373 10.925 3.041v-2.31zM54.132 40.259l-2.429.68a63.233 63.233 0 0 1-.252 2.384l2.68-.75v-2.314z"/>
        <path d="M62.928 59.593l3.704.34-3.704-.227-3.672.227 3.672-.34zM32.278 46.4v21.965h-4.141v2.13H78v-2.13h-4.144V54.8L62.928 53.45l-3.743.466a64.853 64.853 0 0 1-.956 3.015l4.701-.59 7.61.943-7.612-.706-4.735.441a52.62 52.62 0 0 1-2.639 6.28 44.056 44.056 0 0 1-1.423 2.602V54.543l-2.588.327 2.588-.406V51.69l-4.388.682a57.195 57.195 0 0 1-.835 2.906 55.972 55.972 0 0 1-2.185 5.83 49.65 49.65 0 0 1-1.36 2.824 31.604 31.604 0 0 1-1.098 1.97V50.672l-.224.042.224-.051v-2.542l-3.574.782a65.305 65.305 0 0 1-1.328 5.346 62.123 62.123 0 0 1-.851 2.643c-.32.925-.646 1.798-.979 2.61a47.322 47.322 0 0 1-2.37 5.067c-.26.486-.518.931-.755 1.327V45.782l-1.517.428 1.517-.472v-2.2l-2.13.667v2.196zM44.268 40.472l-2.453.763a87.1 87.1 0 0 1-.246 2.275l2.699-.845v-2.193zM73.857 38.042l-10.929-3.375-1.074.33c-.008.752-.027 1.49-.051 2.215l1.129-.355 10.925 3.381v-2.196zM54.132 37.402l-2.234.695a73.792 73.792 0 0 1-.15 2.24l2.384-.739v-2.196zM73.857 35.25l-10.929-3.72-1.065.367v2.081l1.069-.366 10.925 3.716zM54.132 36.113v-1.565l-2.14.727c0 .045 0 .09-.005.133-.008.665-.03 1.324-.058 1.97l2.203-.753v-.512zM32.276 44.108l2.133-.73v-2.08l-2.133.733zM44.268 37.922l-2.265.774a80.788 80.788 0 0 1-.154 2.134l2.419-.83v-2.078zM54.132 31.688L52 32.483v1.965l2.132-.795zM32.276 41.814l2.133-.798v-1.96l-2.133.799zM73.857 32.459L62.928 28.4l-1.065.4v1.962l1.069-.4 10.925 4.057zM44.268 35.374l-2.164.804c-.015.674-.04 1.343-.075 1.991l2.239-.836v-1.959zM32.276 39.52l2.133-.865v-1.843l-2.133.864zM44.268 32.822l-2.126.864v.378c0 .5-.01.984-.02 1.475l2.146-.874v-1.843zM73.857 29.667l-10.929-4.394-1.065.436v1.839l1.069-.427 10.925 4.387zM54.132 28.832L52 29.696v1.843l2.132-.864zM44.268 30.366v-.09l-2.126.924v1.724L44.268 32zM73.857 26.873L62.928 22.14l-1.065.465v1.725l1.069-.466L73.857 28.6zM32.276 37.226l2.133-.934v-1.72l-2.133.93zM54.132 25.975l-2.132.93v1.724l2.132-.928zM32.276 34.93L44.27 29.33v-1.601l-11.994 5.599zM73.857 24.085l-10.929-5.07-1.065.5V21.11l1.069-.492 10.925 5.07zM54.132 23.12L52 24.116v1.602l2.132-.994zM42.138 27.723l2.126-1.063v-1.48l-2.126 1.06zM73.857 21.293l-10.929-5.407-1.065.532V17.9l1.069-.533 10.925 5.404zM54.132 20.268L52 21.332v1.476l2.132-1.061zM73.857 18.51L62.928 12.76l-1.065.566v1.349l1.069-.564 10.925 5.745zM54.132 17.418L52 18.544v1.354l2.132-1.13zM42.138 25.117l2.126-1.133v-1.349l-2.126 1.131zM73.857 15.723L62.928 9.64l-1.065.594v1.223l1.069-.597 10.925 6.082zM42.138 22.507l11.994-6.718V14.564l-11.994 6.721zM73.857 12.941L62.928 6.513l-1.065.635v1.087l1.069-.63 10.925 6.418zM51.999 14.069l2.133-1.263V11.72L52 12.98zM51.999 11.149l2.133-1.326v-.951L52 10.2zM73.857 10.155L62.928 3.396l-1.065.663v.95l1.069-.664 10.925 6.76z"/>
        <path d="M73.857 7.374L62.928.277 52 7.421v.81l10.933-7.146 10.925 7.1zM32.437 87.276c.857 0 1.45.36 1.982.866l.486-.522c-.627-.594-1.313-1-2.458-1-1.85 0-3.187 1.47-3.187 3.27 0 1.816 1.34 3.251 3.16 3.251 1.144 0 1.86-.44 2.521-1.11l-.47-.459c-.6.577-1.172.91-2.034.91-1.384 0-2.437-1.14-2.437-2.612 0-1.465 1.044-2.594 2.437-2.594M40.81 92.384h-3.89V90.18h3.441v-.65h-3.44v-2.151h3.846v-.648H36.21v6.299h4.601zM44.82 89.942h-1.937v-2.553h1.946c1.02 0 1.61.467 1.61 1.247 0 .823-.677 1.306-1.62 1.306m2.345-1.332c0-1.135-.894-1.88-2.282-1.88h-2.709v6.3h.71v-2.446h1.803l1.826 2.446h.871l-1.934-2.572c.99-.182 1.715-.792 1.715-1.848M50.942 93.03v-5.642h2.111v-.66h-4.949v.66h2.115v5.641zM54.352 93.03h.708v-6.301h-.708zM56.944 93.03h.71v-2.745h3.415v-.645h-3.415v-2.252h3.819v-.66h-4.529zM62.789 93.03h.71v-6.301h-.71zM65.382 93.03h4.6v-.645h-3.89v-2.207h3.442v-.648h-3.443v-2.151h3.845v-.65h-4.554zM76.143 89.889c0 1.405-1.017 2.487-2.611 2.487h-1.478v-4.988h1.478c1.594 0 2.61 1.1 2.61 2.5zm-4.797-3.16v6.3h2.186c1.981 0 3.349-1.373 3.349-3.157 0-1.783-1.368-3.143-3.35-3.143h-2.185zM28.664 73.815h2.807l1.67 5.548 1.85-5.574h2.286l1.85 5.574 1.67-5.548h2.753l-3.204 9.658H38.03l-1.93-5.521-1.918 5.521h-2.314zM44.655 83.404h2.67v-9.588h-2.67zM53.487 78.418c.903 0 1.424-.438 1.424-1.136v-.029c0-.753-.547-1.136-1.437-1.136h-1.741v2.301h1.754zm-4.41-4.602h4.532c1.467 0 2.48.383 3.124 1.04.561.549.848 1.289.848 2.232v.028c0 1.466-.78 2.439-1.972 2.946l2.288 3.342h-3.069l-1.93-2.904h-1.165v2.904h-2.656v-9.588zM58.92 73.815h7.71v2.262h-5.08v1.45h4.602v2.097H61.55v1.52h5.15v2.26h-7.78zM71.792 81.048c1.589 0 2.644-.877 2.644-2.425v-.027c0-1.534-1.055-2.425-2.644-2.425H70.71v4.877h1.082zm-3.74-7.233h3.7c3.423 0 5.408 1.973 5.408 4.74v.028c0 2.767-2.012 4.82-5.464 4.82h-3.644v-9.588zM28.264 98.701H78.13v-2.134H28.264z"/>
        <path d="M78.056 35.031v5.333c13.527 8.396 22.563 23.37 22.563 40.43 0 26.226-21.332 47.563-47.55 47.563-26.22 0-47.55-21.337-47.55-47.564 0-17.06 9.034-32.033 22.561-40.425v-5.335C11.907 43.902.91 61.08.91 80.793c0 28.769 23.4 52.172 52.16 52.172 28.763 0 52.158-23.403 52.158-52.172 0-19.712-10.997-36.891-27.172-45.762"/>
        <path d="M78.056 44.91v2.847c9.989 7.575 16.455 19.564 16.455 33.037 0 22.856-18.592 41.45-41.444 41.45-22.846 0-41.442-18.594-41.442-41.45 0-13.473 6.467-25.462 16.455-33.037V44.91C16.75 52.824 9.32 65.953 9.32 80.794c0 24.126 19.628 43.757 43.747 43.757 24.124 0 43.749-19.63 43.749-43.757 0-14.841-7.429-27.972-18.76-35.885"/>
        <path d="M42.29 106.29v-.016c0-1.504 1.179-2.684 2.78-2.684.906 0 1.547.28 2.093.751l-.841 1.011c-.368-.31-.736-.487-1.245-.487-.746 0-1.32.628-1.32 1.417v.015c0 .832.582 1.43 1.4 1.43.346 0 .613-.074.827-.215v-.625h-1.018v-1.048h2.374v2.323a3.495 3.495 0 0 1-2.24.795c-1.608 0-2.81-1.105-2.81-2.668M52.06 106.29v-.016c0-.743-.539-1.393-1.328-1.393-.781 0-1.303.633-1.303 1.378v.015c0 .744.537 1.394 1.318 1.394.789 0 1.313-.635 1.313-1.379m-4.1 0v-.015c0-1.482 1.194-2.684 2.787-2.684s2.772 1.187 2.772 2.67v.014c0 1.483-1.194 2.683-2.787 2.683s-2.772-1.185-2.772-2.668M54.266 103.694h1.429v3.907h2.5v1.255h-3.93zM60.82 107.586c.856 0 1.424-.471 1.424-1.305v-.013c0-.827-.568-1.306-1.424-1.306h-.582v2.624h.582zm-2.012-3.892h1.99c1.844 0 2.912 1.061 2.912 2.551v.013c0 1.492-1.083 2.596-2.94 2.596h-1.962v-5.16z"/>
    </g>
</svg>
